# Blender v2.79 (sub 0) OBJ File: 'box hole file.blend'
# www.blender.org
mtllib hole 07.mtl
o Cube.007
v 0.118900 0.876612 0.713535
v 0.123809 0.915727 0.740090
v -0.120340 0.888774 0.721483
v 0.115801 0.849270 0.695651
v 0.113351 0.824130 0.679890
v -0.115810 0.849316 0.695750
v -0.113350 0.824136 0.679823
v 0.151711 0.999514 0.906097
v -0.148014 0.999571 0.886781
v -0.151675 0.999402 0.905786
v 0.146970 0.999308 0.880912
v -0.159410 0.994866 0.938895
v -0.154890 0.998240 0.920795
v 0.164007 0.989045 0.954111
v 0.159416 0.994853 0.938920
v 0.155518 0.997846 0.923449
v -0.164366 0.988497 0.955200
v -0.169095 0.979966 0.968308
v -0.173364 0.970037 0.978084
v 0.172228 0.972905 0.975708
v 0.167823 0.982391 0.964907
v -0.001977 0.891379 0.981673
v -0.000000 0.934715 0.987669
v 0.179791 0.949478 0.988036
v 0.177949 0.957455 0.986698
v -0.185519 0.911698 0.982709
v -0.000000 0.818093 0.969720
v -0.000000 0.739737 0.960190
v 0.185518 0.911698 0.982710
v 0.182187 0.935238 0.986744
v -0.182188 0.935238 0.986744
v -0.179865 0.949093 0.987814
v -0.178041 0.957101 0.986723
v -0.190201 0.875290 0.974811
v -0.195141 0.820855 0.964381
v -0.199248 0.743230 0.952751
v 0.190200 0.875290 0.974811
v 0.195140 0.820855 0.964381
v 0.199247 0.743230 0.952751
v 0.128347 0.946872 0.764221
v -0.130210 0.957255 0.774355
v 0.131427 0.963049 0.781177
v -0.126420 0.934457 0.753902
v -0.137687 0.986143 0.820069
v 0.135083 0.977630 0.803268
v -0.133441 0.971482 0.793099
v 0.138004 0.986796 0.822297
v -0.141552 0.994632 0.846696
v -0.144372 0.997878 0.865255
v 0.140732 0.993239 0.841038
v 0.143572 0.997160 0.860159
v 0.001524 0.669592 0.620497
v -0.000000 0.641246 0.611595
v -0.118457 0.680690 0.622914
v -0.020247 0.698787 0.629664
v 0.117369 0.688348 0.625855
v 0.120931 0.664444 0.616312
v 0.123598 0.642323 0.608333
v -0.120932 0.664444 0.616312
v -0.123598 0.642323 0.608333
v -0.116230 0.697879 0.628974
v 0.115538 0.705325 0.631019
v -0.113685 0.738607 0.639380
v 0.113557 0.740944 0.639786
v -0.115263 0.709882 0.631968
v 0.111540 0.783009 0.656406
v -0.111529 0.789621 0.659760
v -0.112017 0.805060 0.668429
v 0.111875 0.771957 0.651292
v -0.111669 0.777251 0.653644
v -0.112344 0.762954 0.647679
v 0.111675 0.796892 0.663711
v 0.112311 0.809912 0.671233
v -0.201427 0.637254 0.941253
v -0.000000 0.633452 0.950740
v 0.201426 0.637254 0.941254
vn 0.0011 0.5616 -0.8274
vn -0.0017 0.5786 -0.8156
vn -0.0002 0.5474 -0.8369
vn -0.0001 0.5463 -0.8376
vn -0.0007 0.9969 -0.0785
vn -0.0004 1.0000 0.0088
vn -0.0004 0.9970 0.0771
vn 0.0000 0.9341 0.3571
vn -0.0009 0.7018 0.7124
vn 0.0008 0.5798 0.8147
vn 0.0022 0.6123 -0.7906
vn -0.0024 0.6676 -0.7446
vn 0.0020 0.7234 -0.6905
vn -0.0020 0.8785 -0.4778
vn -0.0014 0.9527 -0.3039
vn -0.0006 0.9850 -0.1724
vn -0.0044 0.2906 -0.9568
vn -0.0008 0.2499 -0.9683
vn -0.0022 0.4200 -0.9075
vn 0.0015 0.3850 -0.9229
vn 0.0014 0.4896 -0.8719
vn -0.0017 0.4657 -0.8850
vn -0.0006 0.5201 -0.8541
vn -0.0003 0.5312 -0.8472
vn 0.0003 0.5346 -0.8451
vn 0.0007 1.0000 -0.0083
vn 0.0004 0.9954 0.0956
vn -0.0002 0.8441 0.5362
vn -0.0003 0.9315 0.3637
vn 0.0012 0.7516 0.6596
vn 0.0081 -0.1482 0.9889
vn -0.0005 0.5555 0.8315
vn -0.0081 -0.1477 0.9890
vn 0.0053 -0.0894 0.9960
vn -0.0021 -0.0366 0.9993
vn -0.0004 0.1502 0.9886
vn -0.0254 -0.1720 0.9848
vn -0.0002 0.9825 0.1863
vn -0.0177 -0.2098 0.9776
vn -0.0342 -0.1335 0.9905
vn -0.0438 -0.0977 0.9943
vn 0.0251 -0.1712 0.9849
vn 0.0173 -0.2099 0.9776
vn 0.0342 -0.1335 0.9905
vn 0.0438 -0.0977 0.9943
vn -0.0238 0.3167 -0.9482
vn -0.0019 0.7964 -0.6048
vn 0.0018 0.8345 -0.5511
vn 0.0014 0.9008 -0.4341
vn 0.0004 0.9457 -0.3252
vn 0.0008 0.9796 -0.2010
vn 0.0007 0.9947 -0.1030
vn -0.0167 0.3686 -0.9294
vn 0.0235 0.3154 -0.9487
vn 0.0159 0.3744 -0.9271
vn 0.0073 0.3146 -0.9492
vn 0.0047 0.2417 -0.9703
vn -0.0039 0.2969 -0.9549
vn -0.0000 0.2032 -0.9791
vn 0.0007 0.2390 -0.9710
vn -0.0016 0.3227 -0.9465
vn 0.0011 0.3479 -0.9375
vn -0.0003 0.4433 -0.8964
vn 0.0003 0.5128 -0.8585
vn 0.0000 0.5002 -0.8659
usemtl Material
s off
f 3//1 2//1 1//1
f 3//2 43//2 2//2
f 1//3 4//3 6//3
f 1//4 6//4 3//4
f 9//5 11//5 49//5
f 9//6 10//6 8//6
f 13//7 8//7 10//7
f 14//8 15//8 12//8
f 19//9 20//9 18//9
f 25//10 20//10 19//10
f 40//11 2//11 43//11
f 40//12 43//12 41//12
f 42//13 40//13 41//13
f 45//14 46//14 44//14
f 50//15 44//15 48//15
f 49//16 51//16 48//16
f 55//17 62//17 56//17
f 64//18 65//18 63//18
f 69//19 71//19 66//19
f 71//20 70//20 66//20
f 67//21 68//21 66//21
f 68//22 72//22 66//22
f 5//23 73//23 68//23
f 6//24 4//24 5//24
f 6//25 5//25 7//25
f 8//26 11//26 9//26
f 13//27 16//27 8//27
f 14//28 17//28 18//28 21//28
f 12//29 17//29 14//29
f 18//30 20//30 21//30
f 30//31 23//31 22//31 29//31
f 19//32 33//32 25//32
f 31//33 26//33 22//33 23//33
f 23//34 30//34 24//34
f 32//35 31//35 23//35 24//35
f 33//36 32//36 24//36 25//36
f 27//37 22//37 34//37 35//37
f 16//38 13//38 12//38 15//38
f 26//39 34//39 22//39
f 28//40 27//40 35//40 36//40
f 74//41 75//41 28//41 36//41
f 37//42 22//42 27//42 38//42
f 22//43 37//43 29//43
f 38//44 27//44 28//44 39//44
f 76//45 39//45 28//45 75//45
f 53//46 52//46 57//46 58//46
f 41//47 46//47 42//47
f 46//48 45//48 42//48
f 44//49 47//49 45//49
f 44//50 50//50 47//50
f 48//51 51//51 50//51
f 49//52 11//52 51//52
f 56//53 57//53 52//53
f 59//54 52//54 53//54 60//54
f 52//55 59//55 54//55
f 61//56 55//56 52//56 54//56
f 55//57 61//57 65//57
f 52//58 55//58 56//58
f 55//59 65//59 62//59
f 64//60 62//60 65//60
f 63//61 71//61 64//61
f 69//62 64//62 71//62
f 66//63 70//63 67//63
f 68//64 7//64 5//64
f 68//65 73//65 72//65
