# Blender v2.79 (sub 0) OBJ File: 'box hole file.blend'
# www.blender.org
mtllib hole 06.mtl
o Cube.006
v -0.118900 0.876612 -0.713535
v -0.123809 0.915727 -0.740090
v 0.120340 0.888774 -0.721483
v -0.115801 0.849269 -0.695650
v -0.113352 0.824131 -0.679889
v 0.115810 0.849317 -0.695750
v 0.113350 0.824136 -0.679823
v -0.148707 0.999595 -0.890506
v 0.148014 0.999571 -0.886780
v -0.153003 0.999153 -0.912315
v 0.153113 0.999042 -0.912827
v 0.000000 0.910670 -0.984571
v 0.000000 0.873434 -0.978217
v 0.000000 0.818093 -0.969720
v 0.000000 0.739737 -0.960190
v -0.185518 0.911698 -0.982709
v 0.000000 0.934715 -0.987669
v -0.179792 0.949478 -0.988035
v -0.178177 0.956580 -0.986893
v 0.185519 0.911698 -0.982709
v 0.190201 0.875290 -0.974810
v -0.190200 0.875290 -0.974811
v -0.195141 0.820855 -0.964380
v -0.199247 0.743230 -0.952750
v -0.182188 0.935238 -0.986744
v 0.182188 0.935238 -0.986744
v 0.179864 0.949093 -0.987814
v 0.178041 0.957101 -0.986722
v 0.171980 0.973534 -0.975185
v -0.176125 0.962652 -0.983470
v -0.172228 0.972906 -0.975708
v 0.166555 0.984853 -0.961561
v -0.166039 0.985850 -0.960156
v 0.159446 0.994733 -0.938900
v 0.162130 0.991648 -0.948150
v -0.160743 0.993437 -0.943612
v 0.156809 0.997005 -0.928796
v -0.156826 0.996984 -0.928868
v 0.141223 0.994148 -0.844454
v -0.140520 0.992859 -0.839570
v 0.144472 0.997935 -0.865884
v -0.144479 0.998033 -0.866062
v -0.134978 0.977202 -0.802629
v -0.137322 0.984908 -0.817719
v 0.135081 0.977680 -0.803214
v -0.129643 0.954190 -0.771246
v 0.131448 0.963113 -0.781314
v -0.127428 0.940933 -0.759312
v 0.125145 0.925290 -0.747166
v 0.128485 0.947745 -0.764915
v -0.132616 0.968162 -0.788141
v -0.111537 0.783294 -0.656543
v 0.112016 0.805060 -0.668428
v 0.111670 0.777174 -0.653681
v 0.111529 0.789621 -0.659760
v -0.111676 0.796892 -0.663711
v -0.112311 0.809912 -0.671233
v -0.111875 0.771958 -0.651291
v 0.112344 0.762955 -0.647679
v 0.113685 0.738604 -0.639379
v -0.113557 0.740942 -0.639785
v 0.115263 0.709882 -0.631967
v -0.001525 0.669592 -0.620496
v 0.020248 0.698787 -0.629664
v -0.117369 0.688348 -0.625854
v 0.000000 0.641246 -0.611594
v 0.118457 0.680690 -0.622914
v 0.116230 0.697878 -0.628973
v -0.115539 0.705325 -0.631019
v -0.120931 0.664444 -0.616312
v -0.123598 0.642323 -0.608332
v 0.120932 0.664444 -0.616311
v 0.123598 0.642323 -0.608332
v 0.000000 0.633452 -0.950739
v -0.201427 0.637254 -0.941253
v 0.137963 0.986701 -0.822008
vn -0.0011 0.5616 0.8274
vn 0.0012 0.5752 0.8180
vn 0.0002 0.5474 0.8369
vn 0.0001 0.5463 0.8376
vn 0.0003 0.9969 0.0781
vn 0.0001 0.6036 -0.7973
vn 0.0008 0.9487 -0.3161
vn -0.0008 0.9091 -0.4166
vn -0.0008 0.9397 0.3420
vn 0.0011 0.9491 0.3150
vn -0.0006 0.8905 0.4549
vn 0.0016 0.8325 0.5540
vn 0.0014 0.7295 0.6840
vn -0.0007 0.6063 0.7952
vn 0.0007 0.6201 0.7846
vn -0.0013 0.4896 0.8719
vn 0.0016 0.4663 0.8846
vn 0.0006 0.5201 0.8541
vn 0.0008 0.3889 0.9213
vn 0.0005 0.4389 0.8986
vn 0.0003 0.9998 -0.0203
vn 0.0008 0.2499 0.9683
vn 0.0044 0.2906 0.9568
vn 0.0003 0.5312 0.8472
vn -0.0003 0.5346 0.8451
vn -0.0007 0.9980 0.0639
vn 0.0152 -0.1891 -0.9818
vn -0.0152 -0.1891 -0.9818
vn -0.0244 -0.1688 -0.9853
vn -0.0342 -0.1335 -0.9905
vn -0.0438 -0.0977 -0.9943
vn -0.0081 -0.1477 -0.9890
vn 0.0081 -0.1477 -0.9890
vn -0.0053 -0.0894 -0.9960
vn 0.0021 -0.0366 -0.9993
vn 0.0005 0.1463 -0.9892
vn -0.0004 0.7689 -0.6394
vn -0.0003 0.4912 -0.8711
vn 0.0015 0.5750 -0.8182
vn -0.0003 0.9737 -0.2280
vn 0.0008 0.8921 -0.4518
vn 0.0001 0.9917 -0.1283
vn -0.0073 0.3146 0.9492
vn 0.0002 0.9847 0.1740
vn -0.0012 0.9814 0.1919
vn 0.0009 0.9015 0.4328
vn -0.0004 0.8484 0.5294
vn -0.0018 0.7705 0.6374
vn -0.0015 0.6689 0.7434
vn -0.0003 0.5128 0.8585
vn -0.0000 0.5002 0.8659
vn -0.0001 0.4203 0.9074
vn -0.0011 0.3479 0.9375
vn 0.0016 0.3227 0.9465
vn -0.0007 0.2390 0.9710
vn 0.0238 0.3167 0.9482
vn -0.0047 0.2417 0.9703
vn 0.0039 0.2969 0.9549
vn 0.0000 0.2032 0.9791
vn 0.0167 0.3686 0.9295
vn -0.0235 0.3154 0.9487
vn -0.0159 0.3744 0.9271
usemtl Material
s off
f 3//1 2//1 1//1
f 3//2 49//2 2//2
f 1//3 4//3 6//3
f 1//4 6//4 3//4
f 9//5 42//5 41//5
f 30//6 31//6 29//6
f 35//7 36//7 34//7
f 33//8 36//8 35//8
f 40//9 44//9 76//9
f 40//10 76//10 39//10
f 45//11 44//11 43//11
f 51//12 47//12 45//12
f 50//13 47//13 46//13
f 48//14 2//14 49//14
f 48//15 49//15 50//15
f 55//16 53//16 52//16
f 53//17 56//17 52//17
f 5//18 57//18 53//18
f 58//19 59//19 54//19
f 54//20 55//20 52//20
f 10//21 8//21 9//21 11//21
f 61//22 62//22 60//22
f 64//23 69//23 65//23
f 6//24 4//24 5//24
f 6//25 5//25 7//25
f 9//26 8//26 42//26
f 13//27 12//27 20//27 21//27
f 16//28 12//28 13//28 22//28
f 22//29 13//29 14//29 23//29
f 23//30 14//30 15//30 24//30
f 75//31 24//31 15//31 74//31
f 25//32 17//32 12//32 16//32
f 26//33 20//33 12//33 17//33
f 17//34 25//34 18//34
f 27//35 26//35 17//35 18//35
f 28//36 27//36 18//36 19//36
f 33//37 32//37 29//37 31//37
f 19//38 30//38 28//38
f 29//39 28//39 30//39
f 38//40 37//40 34//40 36//40
f 35//41 32//41 33//41
f 10//42 11//42 37//42 38//42
f 68//43 64//43 63//43 67//43
f 39//44 41//44 42//44
f 39//45 42//45 40//45
f 45//46 76//46 44//46
f 43//47 51//47 45//47
f 47//48 51//48 46//48
f 46//49 48//49 50//49
f 53//50 7//50 5//50
f 53//51 57//51 56//51
f 52//52 58//52 54//52
f 58//53 61//53 59//53
f 60//54 59//54 61//54
f 61//55 69//55 62//55
f 66//56 63//56 70//56 71//56
f 64//57 68//57 62//57
f 63//58 64//58 65//58
f 64//59 62//59 69//59
f 65//60 70//60 63//60
f 72//61 63//61 66//61 73//61
f 63//62 72//62 67//62
